<svg width="197" height="19" fill="none" xmlns="http://www.w3.org/2000/svg"><path d="M35.17 9.68l.186-.213L44.912.382h-7.79L27.566 9.68v9.299H16.645l-4.176-4.317-4.314 4.092-.223.223H0L19.41.344h8.154l-.003.004h.005v9.331l9.556 9.297h7.79l-9.556-9.083-.185-.214zm158.483-5.725V1.53h1.073c.255 0 .464.077.63.23a.749.749 0 01.246.569.653.653 0 01-.227.497.948.948 0 01-.227.14l.552.99h-.682l-.423-.83h-.324v.83h-.618zm.618-1.37h.422c.173 0 .26-.086.26-.256s-.087-.255-.26-.255h-.422v.51zm-1.014 1.466c.363.362.799.543 1.307.543.506 0 .942-.181 1.305-.543a1.77 1.77 0 00.546-1.307 1.78 1.78 0 00-.546-1.31 1.784 1.784 0 00-1.305-.541c-.508 0-.944.18-1.307.541a1.778 1.778 0 00-.546 1.31c0 .51.181.946.546 1.307zm-.426.365a2.256 2.256 0 01-.705-1.672c0-.655.235-1.214.705-1.673.469-.46 1.047-.689 1.733-.689.684 0 1.262.23 1.731.69.469.458.705 1.017.705 1.672a2.26 2.26 0 01-.705 1.672c-.469.46-1.047.69-1.731.69-.686 0-1.264-.23-1.733-.69zm-31.194 14.222h11.72V9.51l9.556-9.127h7.792L181.149 9.3l-.187.21.187.209 9.556 8.918h-7.792l-9.556-9.128V.348h-.867l.003-.004h-8.156l-16.299 15.362-4.164-3.734c5.355-.305 6.996-2.771 6.996-5.652v-.363c0-3.128-1.808-5.614-8.159-5.614h-17.925V19h6.563V7.924l4.344 4.079h.001l7.065 6.634h10.102l.223-.22 13.71-12.765v8.743h-9.338l4.181 4.243zM45.61 4.598V.35h24.927v4.152C71.981 2.09 75.155 0 81.941 0h1.039c11.09 0 12.523 5.63 12.523 9.072v.737c0 3.418-1.41 9.172-12.523 9.172h-1.038c-11.138 0-12.546-5.755-12.546-9.172v-.737c0-1.317.206-2.954 1.085-4.474h-9.13V19h-6.56V4.598h-9.18zm43.1 4.99v-.344c0-1.942-1.177-4.327-6.26-4.327-5.177 0-6.262 2.385-6.262 4.327v.295c0 1.917 1.178 4.498 6.261 4.498 5.084 0 6.262-2.481 6.262-4.449zM21 14.656V6.569l-8.526 8.087h8.527zm94.038-2.653c6.285 0 8.158-2.603 8.158-5.683v-.363c0-3.128-1.805-5.614-8.158-5.614H97.115V19h6.56V4.588h10.581c1.546 0 2.169.57 2.169 1.549v.07c0 .936-.67 1.551-2.169 1.551h-10.581l4.52 4.245h6.843zm16.311-7.415h10.577c1.548 0 2.173.57 2.173 1.549v.07c0 .932-.672 1.551-2.173 1.551h-10.577v-3.17z" fill="#5E6476"/></svg>